<svg width="147" height="208" viewBox="0 0 147 208" fill="none" xmlns="http://www.w3.org/2000/svg">
<path d="M91.8984 129.875C92.1173 130.613 92.3149 131.256 92.5004 131.86C93.1375 132.025 93.5235 131.666 93.9374 131.461C105.119 125.916 116.295 120.361 127.472 114.808C129.319 113.891 129.494 113.976 130 116.153C127.151 117.573 124.278 119.01 121.401 120.438C112.424 124.896 103.451 129.364 94.4562 133.786C93.4515 134.28 93.2753 134.795 93.5807 135.849C98.7418 153.655 103.867 171.472 108.961 189.297C109.119 189.849 109.881 190.63 108.775 191.138C107.494 191.727 107.22 191.592 106.794 190.111C102.026 173.518 97.2577 156.925 92.4878 140.332C92.0469 138.799 91.5931 137.269 91.1586 135.782C90.5652 135.589 90.2107 135.929 89.8342 136.115C76.1654 142.896 62.5044 149.693 48.8293 156.461C47.9349 156.904 47.4202 157.473 47.1034 158.441C42.1153 173.675 37.0855 188.896 32.0642 204.12C31.9512 204.462 31.7844 204.793 31.713 205.143C31.5246 206.068 31.0345 206.128 30.2102 205.864C29.328 205.582 29.2238 205.186 29.5001 204.356C32.8908 194.165 36.2513 183.963 39.6129 173.762C41.242 168.818 42.857 163.87 44.5354 158.75C41.8524 159.819 39.4598 161.105 37.0303 162.307C31.6202 164.986 26.2139 167.672 20.8247 170.392C20.0618 170.777 19.6411 170.794 19.2251 169.943C18.8126 169.1 18.9442 168.712 19.8102 168.286C28.0111 164.251 36.1838 160.159 44.3823 156.12C45.244 155.695 45.7515 155.146 46.0511 154.233C50.8853 139.496 55.7464 124.769 60.6037 110.04C62.8378 103.265 65.0992 96.4996 67.2897 89.7112C67.6197 88.6886 68.0362 88.4712 69.0162 88.8324C69.7668 89.109 69.888 89.4397 69.6422 90.1736C67.6565 96.1009 65.7064 102.04 63.7484 107.977C58.9161 122.628 54.0849 137.28 49.2562 151.933C49.0702 152.498 48.9155 153.073 48.7402 153.663C49.2571 153.836 49.5696 153.515 49.9017 153.351C62.9589 146.873 76.0048 140.373 89.0748 133.921C90.1683 133.381 90.3595 132.834 90.0265 131.686C85.0372 114.488 80.0954 97.276 75.1513 80.0647C74.9329 79.3044 74.3898 78.4329 75.7636 78.0891C76.5756 77.8858 76.9642 77.9823 77.2191 78.8895C78.8429 84.67 80.5403 90.43 82.2013 96.2003C85.1469 106.433 88.0831 116.668 91.0253 126.902C91.3018 127.864 91.5928 128.821 91.8984 129.875Z" fill="white" stroke="#73E29F" stroke-width="4"/>
<path d="M81.0387 34.5516C75.902 42.1474 70.1348 49.1349 64.027 55.848C61.5277 58.5949 58.945 61.2664 56.4038 63.9756C56.1642 64.231 55.9506 64.5106 55.523 65.019C57.7684 64.5684 59.6168 63.8628 61.456 63.1357C65.8064 61.416 69.974 59.2656 74.3934 57.7048C77.0442 56.7686 79.7444 56.0703 82.5566 55.9095C85.4496 55.7442 88.1792 56.4186 90.8076 57.6089C96.5778 60.222 101.928 63.5973 107.445 66.6693C111.824 69.1079 116.308 71.2895 121.264 72.3189C127.993 73.7164 134.12 72.1796 139.739 68.4183C140.748 67.7429 141.247 67.9419 141.809 68.8719C142.141 69.4222 142.032 69.7217 141.545 70.0454C137.802 72.5326 133.773 74.2897 129.279 74.8937C122.16 75.8506 115.795 73.5199 109.607 70.425C104.667 67.9544 100.016 64.9708 95.1664 62.339C93.1621 61.2513 91.1149 60.2519 89.021 59.3492C84.7051 57.4884 80.4169 58.1541 76.1498 59.5369C71.4973 61.0446 67.1689 63.3314 62.6466 65.1536C59.3353 66.4878 55.9543 67.5529 52.377 67.8797C51.5072 67.9591 50.6301 68.0521 49.7504 67.8543C49.6427 67.2321 50.1456 67.0037 50.4632 66.6877C59.735 57.4617 68.5627 47.8459 76.2956 37.2805C80.2173 31.9224 83.8096 26.3612 86.3209 20.1766C87.2556 17.8747 87.9715 15.5022 88.1292 13.0212C88.3395 9.71165 87.1109 6.85211 83.6629 5.4759C80.7931 4.33041 77.7967 4.34814 74.7954 4.46644C68.2328 4.72513 61.9329 6.37304 55.678 8.19829C52.8409 9.02617 50.0533 10.0212 47.2311 10.9015C46.5164 11.1244 46.1007 11.5235 45.8088 12.2073C37.0077 32.8221 28.1904 53.43 19.3766 74.0394C14.3894 85.7012 9.39866 97.3616 4.42861 109.031C4.07244 109.867 3.72101 110.257 2.73582 109.818C1.7712 109.387 1.92397 108.865 2.24682 108.112C8.67545 93.1183 15.0851 78.1168 21.5049 63.1196C28.6625 46.3988 35.8261 29.6806 42.9879 12.9616C43.3176 12.1921 43.6884 11.4417 43.2991 10.5664C43.167 10.2695 43.186 9.85009 43.5643 9.75329C44.7025 9.46209 44.8898 8.47757 45.2492 7.60665C45.9824 5.83015 46.2096 5.77354 47.9368 6.9768C47.8646 7.32813 47.7882 7.70036 47.6719 8.26717C49.1764 7.78987 50.5287 7.36182 51.8804 6.93182C57.8622 5.02898 63.9191 3.41906 70.1416 2.5251C74.4722 1.90295 78.8146 1.63385 83.1055 2.86663C88.3951 4.38636 90.9308 8.24718 90.3583 13.7011C89.8865 18.1971 88.1199 22.23 86.091 26.1782C84.6123 29.0557 82.9003 31.7996 81.0387 34.5516Z" fill="white" stroke="#73E29F" stroke-width="4"/>
<path d="M132.162 40.8145C132.475 37.281 133.161 33.9802 135.074 31.1297C136.949 28.3347 139.833 28.2924 141.814 30.9933C143.396 33.1508 144.091 35.7195 144.509 38.3476C145.341 43.5837 145.198 48.775 143.44 53.8174C142.957 55.2033 142.344 56.5244 141.346 57.5929C139.489 59.5805 137.006 59.4551 135.343 57.2632C133.831 55.2695 133.122 52.899 132.615 50.4417C131.965 47.297 131.859 44.1215 132.162 40.8145ZM136.261 54.5341C136.492 54.9091 136.698 55.3065 136.961 55.6552C137.945 56.9627 139.037 56.9629 140.017 55.6533C140.571 54.914 140.98 54.0879 141.305 53.1998C142.341 50.373 142.672 47.4278 142.699 44.421C142.731 40.7874 142.412 37.2139 140.913 33.8896C140.406 32.7658 139.867 31.4264 138.446 31.4484C137.083 31.4696 136.621 32.7917 136.104 33.8737C134.972 36.2447 134.511 38.812 134.328 41.439C134.017 45.8984 134.308 50.2667 136.261 54.5341Z" fill="white" stroke="#73E29F" stroke-width="4"/>
<path d="M91.8984 129.875C92.1173 130.613 92.3149 131.256 92.5004 131.86C93.1375 132.025 93.5235 131.666 93.9374 131.461C105.119 125.916 116.295 120.361 127.472 114.808C129.319 113.891 129.494 113.976 130 116.153C127.151 117.573 124.278 119.01 121.401 120.438C112.424 124.896 103.451 129.364 94.4562 133.786C93.4515 134.28 93.2753 134.795 93.5807 135.849C98.7418 153.655 103.867 171.472 108.961 189.297C109.119 189.849 109.881 190.63 108.775 191.138C107.494 191.727 107.22 191.592 106.794 190.111C102.026 173.518 97.2577 156.925 92.4878 140.332C92.0469 138.799 91.5931 137.269 91.1586 135.782C90.5652 135.589 90.2107 135.929 89.8342 136.115C76.1654 142.896 62.5044 149.693 48.8293 156.461C47.9349 156.904 47.4202 157.473 47.1034 158.441C42.1153 173.675 37.0855 188.896 32.0642 204.12C31.9512 204.462 31.7844 204.793 31.713 205.143C31.5246 206.068 31.0345 206.128 30.2102 205.864C29.328 205.582 29.2238 205.186 29.5001 204.356C32.8908 194.165 36.2513 183.963 39.6129 173.762C41.242 168.818 42.857 163.87 44.5354 158.75C41.8524 159.819 39.4598 161.105 37.0303 162.307C31.6202 164.986 26.2139 167.672 20.8247 170.392C20.0618 170.777 19.6411 170.794 19.2251 169.943C18.8126 169.1 18.9442 168.712 19.8102 168.286C28.0111 164.251 36.1838 160.159 44.3823 156.12C45.244 155.695 45.7515 155.146 46.0511 154.233C50.8853 139.496 55.7464 124.769 60.6037 110.04C62.8378 103.265 65.0992 96.4996 67.2897 89.7112C67.6197 88.6886 68.0362 88.4712 69.0162 88.8324C69.7668 89.109 69.888 89.4397 69.6422 90.1736C67.6565 96.1009 65.7064 102.04 63.7484 107.977C58.9161 122.628 54.0849 137.28 49.2562 151.933C49.0702 152.498 48.9155 153.073 48.7402 153.663C49.2571 153.836 49.5696 153.515 49.9017 153.351C62.9589 146.873 76.0048 140.373 89.0748 133.921C90.1683 133.381 90.3595 132.834 90.0265 131.686C85.0372 114.488 80.0954 97.276 75.1513 80.0647C74.9329 79.3044 74.3898 78.4329 75.7636 78.0891C76.5756 77.8858 76.9642 77.9823 77.2191 78.8895C78.8429 84.67 80.5403 90.43 82.2013 96.2003C85.1469 106.433 88.0831 116.668 91.0253 126.902C91.3018 127.864 91.5928 128.821 91.8984 129.875Z" fill="#73E29F" stroke="#73E29F" stroke-width="4"/>
<path d="M81.0387 34.5516C75.902 42.1474 70.1348 49.1349 64.027 55.848C61.5277 58.5949 58.945 61.2664 56.4038 63.9756C56.1642 64.231 55.9506 64.5106 55.523 65.019C57.7684 64.5684 59.6168 63.8628 61.456 63.1357C65.8064 61.416 69.974 59.2656 74.3934 57.7048C77.0442 56.7686 79.7444 56.0703 82.5566 55.9095C85.4496 55.7442 88.1792 56.4186 90.8076 57.6089C96.5778 60.222 101.928 63.5973 107.445 66.6693C111.824 69.1079 116.308 71.2895 121.264 72.3189C127.993 73.7164 134.12 72.1796 139.739 68.4183C140.748 67.7429 141.247 67.9419 141.809 68.8719C142.141 69.4222 142.032 69.7217 141.545 70.0454C137.802 72.5326 133.773 74.2897 129.279 74.8937C122.16 75.8506 115.795 73.5199 109.607 70.425C104.667 67.9544 100.016 64.9708 95.1664 62.339C93.1621 61.2513 91.1149 60.2519 89.021 59.3492C84.7051 57.4884 80.4169 58.1541 76.1498 59.5369C71.4973 61.0446 67.1689 63.3314 62.6466 65.1536C59.3353 66.4878 55.9543 67.5529 52.377 67.8797C51.5072 67.9591 50.6301 68.0521 49.7504 67.8543C49.6427 67.2321 50.1456 67.0037 50.4632 66.6877C59.735 57.4617 68.5627 47.8459 76.2956 37.2805C80.2173 31.9224 83.8096 26.3612 86.3209 20.1766C87.2556 17.8747 87.9715 15.5022 88.1292 13.0212C88.3395 9.71165 87.1109 6.85211 83.6629 5.4759C80.7931 4.33041 77.7967 4.34814 74.7954 4.46644C68.2328 4.72513 61.9329 6.37304 55.678 8.19829C52.8409 9.02617 50.0533 10.0212 47.2311 10.9015C46.5164 11.1244 46.1007 11.5235 45.8088 12.2073C37.0077 32.8221 28.1904 53.43 19.3766 74.0394C14.3894 85.7012 9.39866 97.3616 4.42861 109.031C4.07244 109.867 3.72101 110.257 2.73582 109.818C1.7712 109.387 1.92397 108.865 2.24682 108.112C8.67545 93.1183 15.0851 78.1168 21.5049 63.1196C28.6625 46.3988 35.8261 29.6806 42.9879 12.9616C43.3176 12.1921 43.6884 11.4417 43.2991 10.5664C43.167 10.2695 43.186 9.85009 43.5643 9.75329C44.7025 9.46209 44.8898 8.47757 45.2492 7.60665C45.9824 5.83015 46.2096 5.77354 47.9368 6.9768C47.8646 7.32813 47.7882 7.70036 47.6719 8.26717C49.1764 7.78987 50.5287 7.36182 51.8804 6.93182C57.8622 5.02898 63.9191 3.41906 70.1416 2.5251C74.4722 1.90295 78.8146 1.63385 83.1055 2.86663C88.3951 4.38636 90.9308 8.24718 90.3583 13.7011C89.8865 18.1971 88.1199 22.23 86.091 26.1782C84.6123 29.0557 82.9003 31.7996 81.0387 34.5516Z" fill="#73E29F" stroke="#73E29F" stroke-width="4"/>
<path d="M132.162 40.8145C132.475 37.281 133.161 33.9802 135.074 31.1297C136.949 28.3347 139.833 28.2924 141.814 30.9933C143.396 33.1508 144.091 35.7195 144.509 38.3476C145.341 43.5837 145.198 48.775 143.44 53.8174C142.957 55.2033 142.344 56.5244 141.346 57.5929C139.489 59.5805 137.006 59.4551 135.343 57.2632C133.831 55.2695 133.122 52.899 132.615 50.4417C131.965 47.297 131.859 44.1215 132.162 40.8145ZM136.261 54.5341C136.492 54.9091 136.698 55.3065 136.961 55.6552C137.945 56.9627 139.037 56.9629 140.017 55.6533C140.571 54.914 140.98 54.0879 141.305 53.1998C142.341 50.373 142.672 47.4278 142.699 44.421C142.731 40.7874 142.412 37.2139 140.913 33.8896C140.406 32.7658 139.867 31.4264 138.446 31.4484C137.083 31.4696 136.621 32.7917 136.104 33.8737C134.972 36.2447 134.511 38.812 134.328 41.439C134.017 45.8984 134.308 50.2667 136.261 54.5341Z" fill="#73E29F" stroke="#73E29F" stroke-width="4"/>
<path d="M91.8984 129.875C92.1173 130.613 92.3149 131.256 92.5004 131.86C93.1375 132.025 93.5235 131.666 93.9374 131.461C105.119 125.916 116.295 120.361 127.472 114.808C129.319 113.891 129.494 113.976 130 116.153C127.151 117.573 124.278 119.01 121.401 120.438C112.424 124.896 103.451 129.364 94.4562 133.786C93.4515 134.28 93.2753 134.795 93.5807 135.849C98.7418 153.655 103.867 171.472 108.961 189.297C109.119 189.849 109.881 190.63 108.775 191.138C107.494 191.727 107.22 191.592 106.794 190.111C102.026 173.518 97.2577 156.925 92.4878 140.332C92.0469 138.799 91.5931 137.269 91.1586 135.782C90.5652 135.589 90.2107 135.929 89.8342 136.115C76.1654 142.896 62.5044 149.693 48.8293 156.461C47.9349 156.904 47.4202 157.473 47.1034 158.441C42.1153 173.675 37.0855 188.896 32.0642 204.12C31.9512 204.462 31.7844 204.793 31.713 205.143C31.5246 206.068 31.0345 206.128 30.2102 205.864C29.328 205.582 29.2238 205.186 29.5001 204.356C32.8908 194.165 36.2513 183.963 39.6129 173.762C41.242 168.818 42.857 163.87 44.5354 158.75C41.8524 159.819 39.4598 161.105 37.0303 162.307C31.6202 164.986 26.2139 167.672 20.8247 170.392C20.0618 170.777 19.6411 170.794 19.2251 169.943C18.8126 169.1 18.9442 168.712 19.8102 168.286C28.0111 164.251 36.1838 160.159 44.3823 156.12C45.244 155.695 45.7515 155.146 46.0511 154.233C50.8853 139.496 55.7464 124.769 60.6037 110.04C62.8378 103.265 65.0992 96.4996 67.2897 89.7112C67.6197 88.6886 68.0362 88.4712 69.0162 88.8324C69.7668 89.109 69.888 89.4397 69.6422 90.1736C67.6565 96.1009 65.7064 102.04 63.7484 107.977C58.9161 122.628 54.0849 137.28 49.2562 151.933C49.0702 152.498 48.9155 153.073 48.7402 153.663C49.2571 153.836 49.5696 153.515 49.9017 153.351C62.9589 146.873 76.0048 140.373 89.0748 133.921C90.1683 133.381 90.3595 132.834 90.0265 131.686C85.0372 114.488 80.0954 97.276 75.1513 80.0647C74.9329 79.3044 74.3898 78.4329 75.7636 78.0891C76.5756 77.8858 76.9642 77.9823 77.2191 78.8895C78.8429 84.67 80.5403 90.43 82.2013 96.2003C85.1469 106.433 88.0831 116.668 91.0253 126.902C91.3018 127.864 91.5928 128.821 91.8984 129.875Z" fill="white" stroke="#73E29F" stroke-width="4"/>
<path d="M81.0387 34.5516C75.902 42.1474 70.1348 49.1349 64.027 55.848C61.5277 58.5949 58.945 61.2664 56.4038 63.9756C56.1642 64.231 55.9506 64.5106 55.523 65.019C57.7684 64.5684 59.6168 63.8628 61.456 63.1357C65.8064 61.416 69.974 59.2656 74.3934 57.7048C77.0442 56.7686 79.7444 56.0703 82.5566 55.9095C85.4496 55.7442 88.1792 56.4186 90.8076 57.6089C96.5778 60.222 101.928 63.5973 107.445 66.6693C111.824 69.1079 116.308 71.2895 121.264 72.3189C127.993 73.7164 134.12 72.1796 139.739 68.4183C140.748 67.7429 141.247 67.9419 141.809 68.8719C142.141 69.4222 142.032 69.7217 141.545 70.0454C137.802 72.5326 133.773 74.2897 129.279 74.8937C122.16 75.8506 115.795 73.5199 109.607 70.425C104.667 67.9544 100.016 64.9708 95.1664 62.339C93.1621 61.2513 91.1149 60.2519 89.021 59.3492C84.7051 57.4884 80.4169 58.1541 76.1498 59.5369C71.4973 61.0446 67.1689 63.3314 62.6466 65.1536C59.3353 66.4878 55.9543 67.5529 52.377 67.8797C51.5072 67.9591 50.6301 68.0521 49.7504 67.8543C49.6427 67.2321 50.1456 67.0037 50.4632 66.6877C59.735 57.4617 68.5627 47.8459 76.2956 37.2805C80.2173 31.9224 83.8096 26.3612 86.3209 20.1766C87.2556 17.8747 87.9715 15.5022 88.1292 13.0212C88.3395 9.71165 87.1109 6.85211 83.6629 5.4759C80.7931 4.33041 77.7967 4.34814 74.7954 4.46644C68.2328 4.72513 61.9329 6.37304 55.678 8.19829C52.8409 9.02617 50.0533 10.0212 47.2311 10.9015C46.5164 11.1244 46.1007 11.5235 45.8088 12.2073C37.0077 32.8221 28.1904 53.43 19.3766 74.0394C14.3894 85.7012 9.39866 97.3616 4.42861 109.031C4.07244 109.867 3.72101 110.257 2.73582 109.818C1.7712 109.387 1.92397 108.865 2.24682 108.112C8.67545 93.1183 15.0851 78.1168 21.5049 63.1196C28.6625 46.3988 35.8261 29.6806 42.9879 12.9616C43.3176 12.1921 43.6884 11.4417 43.2991 10.5664C43.167 10.2695 43.186 9.85009 43.5643 9.75329C44.7025 9.46209 44.8898 8.47757 45.2492 7.60665C45.9824 5.83015 46.2096 5.77354 47.9368 6.9768C47.8646 7.32813 47.7882 7.70036 47.6719 8.26717C49.1764 7.78987 50.5287 7.36182 51.8804 6.93182C57.8622 5.02898 63.9191 3.41906 70.1416 2.5251C74.4722 1.90295 78.8146 1.63385 83.1055 2.86663C88.3951 4.38636 90.9308 8.24718 90.3583 13.7011C89.8865 18.1971 88.1199 22.23 86.091 26.1782C84.6123 29.0557 82.9003 31.7996 81.0387 34.5516Z" fill="white" stroke="#73E29F" stroke-width="4"/>
<path d="M132.162 40.8145C132.475 37.281 133.161 33.9802 135.074 31.1297C136.949 28.3347 139.833 28.2924 141.814 30.9933C143.396 33.1508 144.091 35.7195 144.509 38.3476C145.341 43.5837 145.198 48.775 143.44 53.8174C142.957 55.2033 142.344 56.5244 141.346 57.5929C139.489 59.5805 137.006 59.4551 135.343 57.2632C133.831 55.2695 133.122 52.899 132.615 50.4417C131.965 47.297 131.859 44.1215 132.162 40.8145ZM136.261 54.5341C136.492 54.9091 136.698 55.3065 136.961 55.6552C137.945 56.9627 139.037 56.9629 140.017 55.6533C140.571 54.914 140.98 54.0879 141.305 53.1998C142.341 50.373 142.672 47.4278 142.699 44.421C142.731 40.7874 142.412 37.2139 140.913 33.8896C140.406 32.7658 139.867 31.4264 138.446 31.4484C137.083 31.4696 136.621 32.7917 136.104 33.8737C134.972 36.2447 134.511 38.812 134.328 41.439C134.017 45.8984 134.308 50.2667 136.261 54.5341Z" fill="white" stroke="#73E29F" stroke-width="4"/>
<path d="M91.8984 129.875C92.1173 130.613 92.3149 131.256 92.5004 131.86C93.1375 132.025 93.5235 131.666 93.9374 131.461C105.119 125.916 116.295 120.361 127.472 114.808C129.319 113.891 129.494 113.976 130 116.153C127.151 117.573 124.278 119.01 121.401 120.438C112.424 124.896 103.451 129.364 94.4562 133.786C93.4515 134.28 93.2753 134.795 93.5807 135.849C98.7418 153.655 103.867 171.472 108.961 189.297C109.119 189.849 109.881 190.63 108.775 191.138C107.494 191.727 107.22 191.592 106.794 190.111C102.026 173.518 97.2577 156.925 92.4878 140.332C92.0469 138.799 91.5931 137.269 91.1586 135.782C90.5652 135.589 90.2107 135.929 89.8342 136.115C76.1654 142.896 62.5044 149.693 48.8293 156.461C47.9349 156.904 47.4202 157.473 47.1034 158.441C42.1153 173.675 37.0855 188.896 32.0642 204.12C31.9512 204.462 31.7844 204.793 31.713 205.143C31.5246 206.068 31.0345 206.128 30.2102 205.864C29.328 205.582 29.2238 205.186 29.5001 204.356C32.8908 194.165 36.2513 183.963 39.6129 173.762C41.242 168.818 42.857 163.87 44.5354 158.75C41.8524 159.819 39.4598 161.105 37.0303 162.307C31.6202 164.986 26.2139 167.672 20.8247 170.392C20.0618 170.777 19.6411 170.794 19.2251 169.943C18.8126 169.1 18.9442 168.712 19.8102 168.286C28.0111 164.251 36.1838 160.159 44.3823 156.12C45.244 155.695 45.7515 155.146 46.0511 154.233C50.8853 139.496 55.7464 124.769 60.6037 110.04C62.8378 103.265 65.0992 96.4996 67.2897 89.7112C67.6197 88.6886 68.0362 88.4712 69.0162 88.8324C69.7668 89.109 69.888 89.4397 69.6422 90.1736C67.6565 96.1009 65.7064 102.04 63.7484 107.977C58.9161 122.628 54.0849 137.28 49.2562 151.933C49.0702 152.498 48.9155 153.073 48.7402 153.663C49.2571 153.836 49.5696 153.515 49.9017 153.351C62.9589 146.873 76.0048 140.373 89.0748 133.921C90.1683 133.381 90.3595 132.834 90.0265 131.686C85.0372 114.488 80.0954 97.276 75.1513 80.0647C74.9329 79.3044 74.3898 78.4329 75.7636 78.0891C76.5756 77.8858 76.9642 77.9823 77.2191 78.8895C78.8429 84.67 80.5403 90.43 82.2013 96.2003C85.1469 106.433 88.0831 116.668 91.0253 126.902C91.3018 127.864 91.5928 128.821 91.8984 129.875Z" fill="#73E29F" stroke="#73E29F" stroke-width="4"/>
<path d="M81.0387 34.5516C75.902 42.1474 70.1348 49.1349 64.027 55.848C61.5277 58.5949 58.945 61.2664 56.4038 63.9756C56.1642 64.231 55.9506 64.5106 55.523 65.019C57.7684 64.5684 59.6168 63.8628 61.456 63.1357C65.8064 61.416 69.974 59.2656 74.3934 57.7048C77.0442 56.7686 79.7444 56.0703 82.5566 55.9095C85.4496 55.7442 88.1792 56.4186 90.8076 57.6089C96.5778 60.222 101.928 63.5973 107.445 66.6693C111.824 69.1079 116.308 71.2895 121.264 72.3189C127.993 73.7164 134.12 72.1796 139.739 68.4183C140.748 67.7429 141.247 67.9419 141.809 68.8719C142.141 69.4222 142.032 69.7217 141.545 70.0454C137.802 72.5326 133.773 74.2897 129.279 74.8937C122.16 75.8506 115.795 73.5199 109.607 70.425C104.667 67.9544 100.016 64.9708 95.1664 62.339C93.1621 61.2513 91.1149 60.2519 89.021 59.3492C84.7051 57.4884 80.4169 58.1541 76.1498 59.5369C71.4973 61.0446 67.1689 63.3314 62.6466 65.1536C59.3353 66.4878 55.9543 67.5529 52.377 67.8797C51.5072 67.9591 50.6301 68.0521 49.7504 67.8543C49.6427 67.2321 50.1456 67.0037 50.4632 66.6877C59.735 57.4617 68.5627 47.8459 76.2956 37.2805C80.2173 31.9224 83.8096 26.3612 86.3209 20.1766C87.2556 17.8747 87.9715 15.5022 88.1292 13.0212C88.3395 9.71165 87.1109 6.85211 83.6629 5.4759C80.7931 4.33041 77.7967 4.34814 74.7954 4.46644C68.2328 4.72513 61.9329 6.37304 55.678 8.19829C52.8409 9.02617 50.0533 10.0212 47.2311 10.9015C46.5164 11.1244 46.1007 11.5235 45.8088 12.2073C37.0077 32.8221 28.1904 53.43 19.3766 74.0394C14.3894 85.7012 9.39866 97.3616 4.42861 109.031C4.07244 109.867 3.72101 110.257 2.73582 109.818C1.7712 109.387 1.92397 108.865 2.24682 108.112C8.67545 93.1183 15.0851 78.1168 21.5049 63.1196C28.6625 46.3988 35.8261 29.6806 42.9879 12.9616C43.3176 12.1921 43.6884 11.4417 43.2991 10.5664C43.167 10.2695 43.186 9.85009 43.5643 9.75329C44.7025 9.46209 44.8898 8.47757 45.2492 7.60665C45.9824 5.83015 46.2096 5.77354 47.9368 6.9768C47.8646 7.32813 47.7882 7.70036 47.6719 8.26717C49.1764 7.78987 50.5287 7.36182 51.8804 6.93182C57.8622 5.02898 63.9191 3.41906 70.1416 2.5251C74.4722 1.90295 78.8146 1.63385 83.1055 2.86663C88.3951 4.38636 90.9308 8.24718 90.3583 13.7011C89.8865 18.1971 88.1199 22.23 86.091 26.1782C84.6123 29.0557 82.9003 31.7996 81.0387 34.5516Z" fill="#73E29F" stroke="#73E29F" stroke-width="4"/>
<path d="M132.162 40.8145C132.475 37.281 133.161 33.9802 135.074 31.1297C136.949 28.3347 139.833 28.2924 141.814 30.9933C143.396 33.1508 144.091 35.7195 144.509 38.3476C145.341 43.5837 145.198 48.775 143.44 53.8174C142.957 55.2033 142.344 56.5244 141.346 57.5929C139.489 59.5805 137.006 59.4551 135.343 57.2632C133.831 55.2695 133.122 52.899 132.615 50.4417C131.965 47.297 131.859 44.1215 132.162 40.8145ZM136.261 54.5341C136.492 54.9091 136.698 55.3065 136.961 55.6552C137.945 56.9627 139.037 56.9629 140.017 55.6533C140.571 54.914 140.98 54.0879 141.305 53.1998C142.341 50.373 142.672 47.4278 142.699 44.421C142.731 40.7874 142.412 37.2139 140.913 33.8896C140.406 32.7658 139.867 31.4264 138.446 31.4484C137.083 31.4696 136.621 32.7917 136.104 33.8737C134.972 36.2447 134.511 38.812 134.328 41.439C134.017 45.8984 134.308 50.2667 136.261 54.5341Z" fill="#73E29F" stroke="#73E29F" stroke-width="4"/>
<path d="M91.8984 129.875C92.1173 130.613 92.3149 131.256 92.5004 131.86C93.1375 132.025 93.5235 131.666 93.9374 131.461C105.119 125.916 116.295 120.361 127.472 114.808C129.319 113.891 129.494 113.976 130 116.153C127.151 117.573 124.278 119.01 121.401 120.438C112.424 124.896 103.451 129.364 94.4562 133.786C93.4515 134.28 93.2753 134.795 93.5807 135.849C98.7418 153.655 103.867 171.472 108.961 189.297C109.119 189.849 109.881 190.63 108.775 191.138C107.494 191.727 107.22 191.592 106.794 190.111C102.026 173.518 97.2577 156.925 92.4878 140.332C92.0469 138.799 91.5931 137.269 91.1586 135.782C90.5652 135.589 90.2107 135.929 89.8342 136.115C76.1654 142.896 62.5044 149.693 48.8293 156.461C47.9349 156.904 47.4202 157.473 47.1034 158.441C42.1153 173.675 37.0855 188.896 32.0642 204.12C31.9512 204.462 31.7844 204.793 31.713 205.143C31.5246 206.068 31.0345 206.128 30.2102 205.864C29.328 205.582 29.2238 205.186 29.5001 204.356C32.8908 194.165 36.2513 183.963 39.6129 173.762C41.242 168.818 42.857 163.87 44.5354 158.75C41.8524 159.819 39.4598 161.105 37.0303 162.307C31.6202 164.986 26.2139 167.672 20.8247 170.392C20.0618 170.777 19.6411 170.794 19.2251 169.943C18.8126 169.1 18.9442 168.712 19.8102 168.286C28.0111 164.251 36.1838 160.159 44.3823 156.12C45.244 155.695 45.7515 155.146 46.0511 154.233C50.8853 139.496 55.7464 124.769 60.6037 110.04C62.8378 103.265 65.0992 96.4996 67.2897 89.7112C67.6197 88.6886 68.0362 88.4712 69.0162 88.8324C69.7668 89.109 69.888 89.4397 69.6422 90.1736C67.6565 96.1009 65.7064 102.04 63.7484 107.977C58.9161 122.628 54.0849 137.28 49.2562 151.933C49.0702 152.498 48.9155 153.073 48.7402 153.663C49.2571 153.836 49.5696 153.515 49.9017 153.351C62.9589 146.873 76.0048 140.373 89.0748 133.921C90.1683 133.381 90.3595 132.834 90.0265 131.686C85.0372 114.488 80.0954 97.276 75.1513 80.0647C74.9329 79.3044 74.3898 78.4329 75.7636 78.0891C76.5756 77.8858 76.9642 77.9823 77.2191 78.8895C78.8429 84.67 80.5403 90.43 82.2013 96.2003C85.1469 106.433 88.0831 116.668 91.0253 126.902C91.3018 127.864 91.5928 128.821 91.8984 129.875Z" fill="white" stroke="#73E29F" stroke-width="4"/>
<path d="M81.0387 34.5516C75.902 42.1474 70.1348 49.1349 64.027 55.848C61.5277 58.5949 58.945 61.2664 56.4038 63.9756C56.1642 64.231 55.9506 64.5106 55.523 65.019C57.7684 64.5684 59.6168 63.8628 61.456 63.1357C65.8064 61.416 69.974 59.2656 74.3934 57.7048C77.0442 56.7686 79.7444 56.0703 82.5566 55.9095C85.4496 55.7442 88.1792 56.4186 90.8076 57.6089C96.5778 60.222 101.928 63.5973 107.445 66.6693C111.824 69.1079 116.308 71.2895 121.264 72.3189C127.993 73.7164 134.12 72.1796 139.739 68.4183C140.748 67.7429 141.247 67.9419 141.809 68.8719C142.141 69.4222 142.032 69.7217 141.545 70.0454C137.802 72.5326 133.773 74.2897 129.279 74.8937C122.16 75.8506 115.795 73.5199 109.607 70.425C104.667 67.9544 100.016 64.9708 95.1664 62.339C93.1621 61.2513 91.1149 60.2519 89.021 59.3492C84.7051 57.4884 80.4169 58.1541 76.1498 59.5369C71.4973 61.0446 67.1689 63.3314 62.6466 65.1536C59.3353 66.4878 55.9543 67.5529 52.377 67.8797C51.5072 67.9591 50.6301 68.0521 49.7504 67.8543C49.6427 67.2321 50.1456 67.0037 50.4632 66.6877C59.735 57.4617 68.5627 47.8459 76.2956 37.2805C80.2173 31.9224 83.8096 26.3612 86.3209 20.1766C87.2556 17.8747 87.9715 15.5022 88.1292 13.0212C88.3395 9.71165 87.1109 6.85211 83.6629 5.4759C80.7931 4.33041 77.7967 4.34814 74.7954 4.46644C68.2328 4.72513 61.9329 6.37304 55.678 8.19829C52.8409 9.02617 50.0533 10.0212 47.2311 10.9015C46.5164 11.1244 46.1007 11.5235 45.8088 12.2073C37.0077 32.8221 28.1904 53.43 19.3766 74.0394C14.3894 85.7012 9.39866 97.3616 4.42861 109.031C4.07244 109.867 3.72101 110.257 2.73582 109.818C1.7712 109.387 1.92397 108.865 2.24682 108.112C8.67545 93.1183 15.0851 78.1168 21.5049 63.1196C28.6625 46.3988 35.8261 29.6806 42.9879 12.9616C43.3176 12.1921 43.6884 11.4417 43.2991 10.5664C43.167 10.2695 43.186 9.85009 43.5643 9.75329C44.7025 9.46209 44.8898 8.47757 45.2492 7.60665C45.9824 5.83015 46.2096 5.77354 47.9368 6.9768C47.8646 7.32813 47.7882 7.70036 47.6719 8.26717C49.1764 7.78987 50.5287 7.36182 51.8804 6.93182C57.8622 5.02898 63.9191 3.41906 70.1416 2.5251C74.4722 1.90295 78.8146 1.63385 83.1055 2.86663C88.3951 4.38636 90.9308 8.24718 90.3583 13.7011C89.8865 18.1971 88.1199 22.23 86.091 26.1782C84.6123 29.0557 82.9003 31.7996 81.0387 34.5516Z" fill="white" stroke="#73E29F" stroke-width="4"/>
<path d="M132.162 40.8145C132.475 37.281 133.161 33.9802 135.074 31.1297C136.949 28.3347 139.833 28.2924 141.814 30.9933C143.396 33.1508 144.091 35.7195 144.509 38.3476C145.341 43.5837 145.198 48.775 143.44 53.8174C142.957 55.2033 142.344 56.5244 141.346 57.5929C139.489 59.5805 137.006 59.4551 135.343 57.2632C133.831 55.2695 133.122 52.899 132.615 50.4417C131.965 47.297 131.859 44.1215 132.162 40.8145ZM136.261 54.5341C136.492 54.9091 136.698 55.3065 136.961 55.6552C137.945 56.9627 139.037 56.9629 140.017 55.6533C140.571 54.914 140.98 54.0879 141.305 53.1998C142.341 50.373 142.672 47.4278 142.699 44.421C142.731 40.7874 142.412 37.2139 140.913 33.8896C140.406 32.7658 139.867 31.4264 138.446 31.4484C137.083 31.4696 136.621 32.7917 136.104 33.8737C134.972 36.2447 134.511 38.812 134.328 41.439C134.017 45.8984 134.308 50.2667 136.261 54.5341Z" fill="white" stroke="#73E29F" stroke-width="4"/>
<path d="M91.8984 129.875C92.1173 130.613 92.3149 131.256 92.5004 131.86C93.1375 132.025 93.5235 131.666 93.9374 131.461C105.119 125.916 116.295 120.361 127.472 114.808C129.319 113.891 129.494 113.976 130 116.153C127.151 117.573 124.278 119.01 121.401 120.438C112.424 124.896 103.451 129.364 94.4562 133.786C93.4515 134.28 93.2753 134.795 93.5807 135.849C98.7418 153.655 103.867 171.472 108.961 189.297C109.119 189.849 109.881 190.63 108.775 191.138C107.494 191.727 107.22 191.592 106.794 190.111C102.026 173.518 97.2577 156.925 92.4878 140.332C92.0469 138.799 91.5931 137.269 91.1586 135.782C90.5652 135.589 90.2107 135.929 89.8342 136.115C76.1654 142.896 62.5044 149.693 48.8293 156.461C47.9349 156.904 47.4202 157.473 47.1034 158.441C42.1153 173.675 37.0855 188.896 32.0642 204.12C31.9512 204.462 31.7844 204.793 31.713 205.143C31.5246 206.068 31.0345 206.128 30.2102 205.864C29.328 205.582 29.2238 205.186 29.5001 204.356C32.8908 194.165 36.2513 183.963 39.6129 173.762C41.242 168.818 42.857 163.87 44.5354 158.75C41.8524 159.819 39.4598 161.105 37.0303 162.307C31.6202 164.986 26.2139 167.672 20.8247 170.392C20.0618 170.777 19.6411 170.794 19.2251 169.943C18.8126 169.1 18.9442 168.712 19.8102 168.286C28.0111 164.251 36.1838 160.159 44.3823 156.12C45.244 155.695 45.7515 155.146 46.0511 154.233C50.8853 139.496 55.7464 124.769 60.6037 110.04C62.8378 103.265 65.0992 96.4996 67.2897 89.7112C67.6197 88.6886 68.0362 88.4712 69.0162 88.8324C69.7668 89.109 69.888 89.4397 69.6422 90.1736C67.6565 96.1009 65.7064 102.04 63.7484 107.977C58.9161 122.628 54.0849 137.28 49.2562 151.933C49.0702 152.498 48.9155 153.073 48.7402 153.663C49.2571 153.836 49.5696 153.515 49.9017 153.351C62.9589 146.873 76.0048 140.373 89.0748 133.921C90.1683 133.381 90.3595 132.834 90.0265 131.686C85.0372 114.488 80.0954 97.276 75.1513 80.0647C74.9329 79.3044 74.3898 78.4329 75.7636 78.0891C76.5756 77.8858 76.9642 77.9823 77.2191 78.8895C78.8429 84.67 80.5403 90.43 82.2013 96.2003C85.1469 106.433 88.0831 116.668 91.0253 126.902C91.3018 127.864 91.5928 128.821 91.8984 129.875Z" fill="#73E29F" stroke="#73E29F" stroke-width="4"/>
<path d="M81.0387 34.5516C75.902 42.1474 70.1348 49.1349 64.027 55.848C61.5277 58.5949 58.945 61.2664 56.4038 63.9756C56.1642 64.231 55.9506 64.5106 55.523 65.019C57.7684 64.5684 59.6168 63.8628 61.456 63.1357C65.8064 61.416 69.974 59.2656 74.3934 57.7048C77.0442 56.7686 79.7444 56.0703 82.5566 55.9095C85.4496 55.7442 88.1792 56.4186 90.8076 57.6089C96.5778 60.222 101.928 63.5973 107.445 66.6693C111.824 69.1079 116.308 71.2895 121.264 72.3189C127.993 73.7164 134.12 72.1796 139.739 68.4183C140.748 67.7429 141.247 67.9419 141.809 68.8719C142.141 69.4222 142.032 69.7217 141.545 70.0454C137.802 72.5326 133.773 74.2897 129.279 74.8937C122.16 75.8506 115.795 73.5199 109.607 70.425C104.667 67.9544 100.016 64.9708 95.1664 62.339C93.1621 61.2513 91.1149 60.2519 89.021 59.3492C84.7051 57.4884 80.4169 58.1541 76.1498 59.5369C71.4973 61.0446 67.1689 63.3314 62.6466 65.1536C59.3353 66.4878 55.9543 67.5529 52.377 67.8797C51.5072 67.9591 50.6301 68.0521 49.7504 67.8543C49.6427 67.2321 50.1456 67.0037 50.4632 66.6877C59.735 57.4617 68.5627 47.8459 76.2956 37.2805C80.2173 31.9224 83.8096 26.3612 86.3209 20.1766C87.2556 17.8747 87.9715 15.5022 88.1292 13.0212C88.3395 9.71165 87.1109 6.85211 83.6629 5.4759C80.7931 4.33041 77.7967 4.34814 74.7954 4.46644C68.2328 4.72513 61.9329 6.37304 55.678 8.19829C52.8409 9.02617 50.0533 10.0212 47.2311 10.9015C46.5164 11.1244 46.1007 11.5235 45.8088 12.2073C37.0077 32.8221 28.1904 53.43 19.3766 74.0394C14.3894 85.7012 9.39866 97.3616 4.42861 109.031C4.07244 109.867 3.72101 110.257 2.73582 109.818C1.7712 109.387 1.92397 108.865 2.24682 108.112C8.67545 93.1183 15.0851 78.1168 21.5049 63.1196C28.6625 46.3988 35.8261 29.6806 42.9879 12.9616C43.3176 12.1921 43.6884 11.4417 43.2991 10.5664C43.167 10.2695 43.186 9.85009 43.5643 9.75329C44.7025 9.46209 44.8898 8.47757 45.2492 7.60665C45.9824 5.83015 46.2096 5.77354 47.9368 6.9768C47.8646 7.32813 47.7882 7.70036 47.6719 8.26717C49.1764 7.78987 50.5287 7.36182 51.8804 6.93182C57.8622 5.02898 63.9191 3.41906 70.1416 2.5251C74.4722 1.90295 78.8146 1.63385 83.1055 2.86663C88.3951 4.38636 90.9308 8.24718 90.3583 13.7011C89.8865 18.1971 88.1199 22.23 86.091 26.1782C84.6123 29.0557 82.9003 31.7996 81.0387 34.5516Z" fill="#73E29F" stroke="#73E29F" stroke-width="4"/>
<path d="M132.162 40.8145C132.475 37.281 133.161 33.9802 135.074 31.1297C136.949 28.3347 139.833 28.2924 141.814 30.9933C143.396 33.1508 144.091 35.7195 144.509 38.3476C145.341 43.5837 145.198 48.775 143.44 53.8174C142.957 55.2033 142.344 56.5244 141.346 57.5929C139.489 59.5805 137.006 59.4551 135.343 57.2632C133.831 55.2695 133.122 52.899 132.615 50.4417C131.965 47.297 131.859 44.1215 132.162 40.8145ZM136.261 54.5341C136.492 54.9091 136.698 55.3065 136.961 55.6552C137.945 56.9627 139.037 56.9629 140.017 55.6533C140.571 54.914 140.98 54.0879 141.305 53.1998C142.341 50.373 142.672 47.4278 142.699 44.421C142.731 40.7874 142.412 37.2139 140.913 33.8896C140.406 32.7658 139.867 31.4264 138.446 31.4484C137.083 31.4696 136.621 32.7917 136.104 33.8737C134.972 36.2447 134.511 38.812 134.328 41.439C134.017 45.8984 134.308 50.2667 136.261 54.5341Z" fill="#73E29F" stroke="#73E29F" stroke-width="4"/>
</svg>
