<svg width="221" height="221" viewBox="0 0 221 221" fill="none" xmlns="http://www.w3.org/2000/svg">
<rect width="221" height="221" rx="60" fill="#252525"/>
<path d="M124.48 130.122C124.649 130.693 124.803 131.19 124.946 131.657C125.44 131.785 125.739 131.507 126.06 131.349C134.723 127.06 143.382 122.764 152.041 118.469C153.472 117.759 153.608 117.825 154 119.509C151.793 120.607 149.567 121.719 147.338 122.823C140.382 126.271 133.431 129.727 126.462 133.147C125.683 133.529 125.547 133.928 125.783 134.742C129.782 148.515 133.753 162.295 137.7 176.082C137.822 176.508 138.412 177.112 137.555 177.506C136.563 177.961 136.35 177.856 136.021 176.711C132.326 163.877 128.632 151.044 124.936 138.21C124.595 137.024 124.243 135.84 123.907 134.691C123.447 134.541 123.172 134.804 122.881 134.949C112.29 140.193 101.706 145.45 91.111 150.685C90.418 151.027 90.0193 151.468 89.7738 152.216C85.9091 163.999 82.0122 175.771 78.1218 187.546C78.0343 187.811 77.905 188.066 77.8497 188.337C77.7037 189.053 77.324 189.099 76.6854 188.895C76.0019 188.677 75.9212 188.371 76.1352 187.728C78.7623 179.846 81.3659 171.956 83.9703 164.066C85.2326 160.242 86.4838 156.415 87.7842 152.455C85.7055 153.282 83.8517 154.276 81.9694 155.207C77.7778 157.278 73.5892 159.356 69.4137 161.459C68.8227 161.757 68.4967 161.771 68.1744 161.112C67.8548 160.46 67.9568 160.16 68.6278 159.83C74.9816 156.71 81.3135 153.545 87.6656 150.421C88.3332 150.092 88.7264 149.668 88.9585 148.961C92.7039 137.564 96.4702 126.173 100.234 114.781C101.964 109.541 103.716 104.308 105.414 99.0579C105.669 98.267 105.992 98.0988 106.751 98.3782C107.333 98.5921 107.427 98.8479 107.236 99.4155C105.698 104 104.187 108.593 102.67 113.185C98.926 124.517 95.1829 135.85 91.4418 147.183C91.2976 147.62 91.1778 148.064 91.042 148.521C91.4424 148.655 91.6846 148.406 91.9418 148.279C102.058 143.269 112.166 138.242 122.292 133.251C123.139 132.834 123.288 132.411 123.03 131.523C119.164 118.221 115.335 104.909 111.505 91.597C111.335 91.0088 110.915 90.3348 111.979 90.0689C112.608 89.9117 112.909 89.9863 113.107 90.688C114.365 95.1588 115.68 99.6139 116.967 104.077C119.249 111.991 121.524 119.907 123.803 127.822C124.018 128.566 124.243 129.307 124.48 130.122Z" fill="white" stroke="#73E29F" stroke-width="4"/>
<path d="M115.408 56.0165C111.482 61.854 107.074 67.224 102.406 72.3832C100.496 74.4943 98.5222 76.5473 96.5801 78.6294C96.397 78.8257 96.2336 79.0406 95.9068 79.4313C97.623 79.085 99.0357 78.5427 100.441 77.9839C103.766 76.6623 106.952 75.0097 110.329 73.8101C112.355 73.0907 114.419 72.554 116.568 72.4305C118.779 72.3034 120.866 72.8217 122.874 73.7365C127.284 75.7446 131.373 78.3387 135.59 80.6996C138.937 82.5737 142.364 84.2502 146.152 85.0414C151.294 86.1154 155.977 84.9343 160.272 82.0437C161.043 81.5246 161.424 81.6776 161.854 82.3923C162.108 82.8152 162.025 83.0454 161.652 83.2942C158.791 85.2056 155.712 86.556 152.278 87.0202C146.837 87.7555 141.972 85.9644 137.243 83.5859C133.467 81.6872 129.912 79.3942 126.206 77.3716C124.674 76.5357 123.109 75.7677 121.509 75.0739C118.21 73.6439 114.933 74.1555 111.672 75.2182C108.116 76.3769 104.808 78.1343 101.351 79.5347C98.8205 80.5601 96.2365 81.3786 93.5024 81.6297C92.8376 81.6908 92.1673 81.7623 91.4949 81.6102C91.4126 81.1321 91.797 80.9566 92.0398 80.7137C99.126 73.6233 105.873 66.2334 111.783 58.1137C114.78 53.9959 117.526 49.7221 119.445 44.9691C120.16 43.2 120.707 41.3767 120.827 39.47C120.988 36.9265 120.049 34.7289 117.414 33.6713C115.22 32.791 112.93 32.8046 110.637 32.8955C105.621 33.0943 100.806 34.3608 96.0253 35.7635C93.857 36.3997 91.7265 37.1644 89.5695 37.841C89.0232 38.0123 88.7056 38.319 88.4824 38.8445C81.7559 54.6874 75.0169 70.5249 68.2807 86.3636C64.469 95.326 60.6547 104.287 56.8562 113.255C56.5839 113.898 56.3153 114.197 55.5624 113.86C54.8251 113.529 54.9419 113.128 55.1886 112.549C60.1019 101.026 65.0008 89.4972 69.9073 77.9715C75.3777 65.1213 80.8528 52.273 86.3265 39.4242C86.5784 38.8328 86.8619 38.2561 86.5643 37.5834C86.4634 37.3552 86.4779 37.0329 86.767 36.9585C87.6369 36.7348 87.7801 35.9781 88.0548 35.3088C88.6151 33.9435 88.7888 33.9 90.1088 34.8248C90.0537 35.0948 89.9953 35.3808 89.9064 35.8164C91.0562 35.4496 92.0898 35.1207 93.1229 34.7902C97.6947 33.3278 102.324 32.0906 107.08 31.4035C110.389 30.9254 113.708 30.7186 116.988 31.666C121.031 32.834 122.969 35.8011 122.531 39.9925C122.17 43.4477 120.82 46.5471 119.27 49.5814C118.139 51.7928 116.831 53.9015 115.408 56.0165Z" fill="white" stroke="#73E29F" stroke-width="4"/>
<path d="M156.112 60.6639C156.329 58.0727 156.804 55.6521 158.128 53.5617C159.427 51.5121 161.423 51.4811 162.794 53.4618C163.89 55.0439 164.371 56.9276 164.66 58.8549C165.236 62.6947 165.137 66.5017 163.92 70.1994C163.585 71.2158 163.161 72.1846 162.47 72.9681C161.185 74.4257 159.466 74.3337 158.314 72.7263C157.267 71.2643 156.777 69.526 156.426 67.7239C155.976 65.4178 155.902 63.0891 156.112 60.6639ZM158.95 70.725C159.11 71 159.253 71.2914 159.434 71.5471C160.116 72.506 160.872 72.5062 161.551 71.5457C161.934 71.0036 162.217 70.3978 162.442 69.7465C163.159 67.6735 163.388 65.5137 163.407 63.3088C163.429 60.6441 163.208 58.0235 162.171 55.5857C161.82 54.7616 161.446 53.7794 160.463 53.7955C159.519 53.811 159.199 54.7806 158.842 55.5741C158.058 57.3128 157.739 59.1955 157.612 61.1219C157.397 64.3921 157.598 67.5956 158.95 70.725Z" fill="white" stroke="#73E29F" stroke-width="4"/>
<path d="M124.48 130.122C124.649 130.693 124.803 131.19 124.946 131.657C125.44 131.785 125.739 131.507 126.06 131.349C134.723 127.06 143.382 122.764 152.041 118.469C153.472 117.759 153.608 117.825 154 119.509C151.793 120.607 149.567 121.719 147.338 122.823C140.382 126.271 133.431 129.727 126.462 133.147C125.683 133.529 125.547 133.928 125.783 134.742C129.782 148.515 133.753 162.295 137.7 176.082C137.822 176.508 138.412 177.112 137.555 177.506C136.563 177.961 136.35 177.856 136.021 176.711C132.326 163.877 128.632 151.044 124.936 138.21C124.595 137.024 124.243 135.84 123.907 134.691C123.447 134.541 123.172 134.804 122.881 134.949C112.29 140.193 101.706 145.45 91.111 150.685C90.418 151.027 90.0193 151.468 89.7738 152.216C85.9091 163.999 82.0122 175.771 78.1218 187.546C78.0343 187.811 77.905 188.066 77.8497 188.337C77.7037 189.053 77.324 189.099 76.6854 188.895C76.0019 188.677 75.9212 188.371 76.1352 187.728C78.7623 179.846 81.3659 171.956 83.9703 164.066C85.2326 160.242 86.4838 156.415 87.7842 152.455C85.7055 153.282 83.8517 154.276 81.9694 155.207C77.7778 157.278 73.5892 159.356 69.4137 161.459C68.8227 161.757 68.4967 161.771 68.1744 161.112C67.8548 160.46 67.9568 160.16 68.6278 159.83C74.9816 156.71 81.3135 153.545 87.6656 150.421C88.3332 150.092 88.7264 149.668 88.9585 148.961C92.7039 137.564 96.4702 126.173 100.234 114.781C101.964 109.541 103.716 104.308 105.414 99.0579C105.669 98.267 105.992 98.0988 106.751 98.3782C107.333 98.5921 107.427 98.8479 107.236 99.4155C105.698 104 104.187 108.593 102.67 113.185C98.926 124.517 95.1829 135.85 91.4418 147.183C91.2976 147.62 91.1778 148.064 91.042 148.521C91.4424 148.655 91.6846 148.406 91.9418 148.279C102.058 143.269 112.166 138.242 122.292 133.251C123.139 132.834 123.288 132.411 123.03 131.523C119.164 118.221 115.335 104.909 111.505 91.597C111.335 91.0088 110.915 90.3348 111.979 90.0689C112.608 89.9117 112.909 89.9863 113.107 90.688C114.365 95.1588 115.68 99.6139 116.967 104.077C119.249 111.991 121.524 119.907 123.803 127.822C124.018 128.566 124.243 129.307 124.48 130.122Z" fill="#73E29F" stroke="#73E29F" stroke-width="4"/>
<path d="M115.408 56.0165C111.482 61.854 107.074 67.224 102.406 72.3832C100.496 74.4943 98.5222 76.5473 96.5801 78.6294C96.397 78.8257 96.2336 79.0406 95.9068 79.4313C97.623 79.085 99.0357 78.5427 100.441 77.9839C103.766 76.6623 106.952 75.0097 110.329 73.8101C112.355 73.0907 114.419 72.554 116.568 72.4305C118.779 72.3034 120.866 72.8217 122.874 73.7365C127.284 75.7446 131.373 78.3387 135.59 80.6996C138.937 82.5737 142.364 84.2502 146.152 85.0414C151.294 86.1154 155.977 84.9343 160.272 82.0437C161.043 81.5246 161.424 81.6776 161.854 82.3923C162.108 82.8152 162.025 83.0454 161.652 83.2942C158.791 85.2056 155.712 86.556 152.278 87.0202C146.837 87.7555 141.972 85.9644 137.243 83.5859C133.467 81.6872 129.912 79.3942 126.206 77.3716C124.674 76.5357 123.109 75.7677 121.509 75.0739C118.21 73.6439 114.933 74.1555 111.672 75.2182C108.116 76.3769 104.808 78.1343 101.351 79.5347C98.8205 80.5601 96.2365 81.3786 93.5024 81.6297C92.8376 81.6908 92.1673 81.7623 91.4949 81.6102C91.4126 81.1321 91.797 80.9566 92.0398 80.7137C99.126 73.6233 105.873 66.2334 111.783 58.1137C114.78 53.9959 117.526 49.7221 119.445 44.9691C120.16 43.2 120.707 41.3767 120.827 39.47C120.988 36.9265 120.049 34.7289 117.414 33.6713C115.22 32.791 112.93 32.8046 110.637 32.8955C105.621 33.0943 100.806 34.3608 96.0253 35.7635C93.857 36.3997 91.7265 37.1644 89.5695 37.841C89.0232 38.0123 88.7056 38.319 88.4824 38.8445C81.7559 54.6874 75.0169 70.5249 68.2807 86.3636C64.469 95.326 60.6547 104.287 56.8562 113.255C56.5839 113.898 56.3153 114.197 55.5624 113.86C54.8251 113.529 54.9419 113.128 55.1886 112.549C60.1019 101.026 65.0008 89.4972 69.9073 77.9715C75.3777 65.1213 80.8528 52.273 86.3265 39.4242C86.5784 38.8328 86.8619 38.2561 86.5643 37.5834C86.4634 37.3552 86.4779 37.0329 86.767 36.9585C87.6369 36.7348 87.7801 35.9781 88.0548 35.3088C88.6151 33.9435 88.7888 33.9 90.1088 34.8248C90.0537 35.0948 89.9953 35.3808 89.9064 35.8164C91.0562 35.4496 92.0898 35.1207 93.1229 34.7902C97.6947 33.3278 102.324 32.0906 107.08 31.4035C110.389 30.9254 113.708 30.7186 116.988 31.666C121.031 32.834 122.969 35.8011 122.531 39.9925C122.17 43.4477 120.82 46.5471 119.27 49.5814C118.139 51.7928 116.831 53.9015 115.408 56.0165Z" fill="#73E29F" stroke="#73E29F" stroke-width="4"/>
<path d="M156.112 60.6639C156.329 58.0727 156.804 55.6521 158.128 53.5617C159.427 51.5121 161.423 51.4811 162.794 53.4618C163.89 55.0439 164.371 56.9276 164.66 58.8549C165.236 62.6947 165.137 66.5017 163.92 70.1994C163.585 71.2158 163.161 72.1846 162.47 72.9681C161.185 74.4257 159.466 74.3337 158.314 72.7263C157.267 71.2643 156.777 69.526 156.426 67.7239C155.976 65.4178 155.902 63.0891 156.112 60.6639ZM158.95 70.725C159.11 71 159.253 71.2914 159.434 71.5471C160.116 72.506 160.872 72.5062 161.551 71.5457C161.934 71.0036 162.217 70.3978 162.442 69.7465C163.159 67.6735 163.388 65.5137 163.407 63.3088C163.429 60.6441 163.208 58.0235 162.171 55.5857C161.82 54.7616 161.446 53.7794 160.463 53.7955C159.519 53.811 159.199 54.7806 158.842 55.5741C158.058 57.3128 157.739 59.1955 157.612 61.1219C157.397 64.3921 157.598 67.5956 158.95 70.725Z" fill="#73E29F" stroke="#73E29F" stroke-width="4"/>
<path d="M124.48 130.122C124.649 130.693 124.803 131.19 124.946 131.657C125.44 131.785 125.739 131.507 126.06 131.349C134.723 127.06 143.382 122.764 152.041 118.469C153.472 117.759 153.608 117.825 154 119.509C151.793 120.607 149.567 121.719 147.338 122.823C140.382 126.271 133.431 129.727 126.462 133.147C125.683 133.529 125.547 133.928 125.783 134.742C129.782 148.515 133.753 162.295 137.7 176.082C137.822 176.508 138.412 177.112 137.555 177.506C136.563 177.961 136.35 177.856 136.021 176.711C132.326 163.877 128.632 151.044 124.936 138.21C124.595 137.024 124.243 135.84 123.907 134.691C123.447 134.541 123.172 134.804 122.881 134.949C112.29 140.193 101.706 145.45 91.111 150.685C90.418 151.027 90.0193 151.468 89.7738 152.216C85.9091 163.999 82.0122 175.771 78.1218 187.546C78.0343 187.811 77.905 188.066 77.8497 188.337C77.7037 189.053 77.324 189.099 76.6854 188.895C76.0019 188.677 75.9212 188.371 76.1352 187.728C78.7623 179.846 81.3659 171.956 83.9703 164.066C85.2326 160.242 86.4838 156.415 87.7842 152.455C85.7055 153.282 83.8517 154.276 81.9694 155.207C77.7778 157.278 73.5892 159.356 69.4137 161.459C68.8227 161.757 68.4967 161.771 68.1744 161.112C67.8548 160.46 67.9568 160.16 68.6278 159.83C74.9816 156.71 81.3135 153.545 87.6656 150.421C88.3332 150.092 88.7264 149.668 88.9585 148.961C92.7039 137.564 96.4702 126.173 100.234 114.781C101.964 109.541 103.716 104.308 105.414 99.0579C105.669 98.267 105.992 98.0988 106.751 98.3782C107.333 98.5921 107.427 98.8479 107.236 99.4155C105.698 104 104.187 108.593 102.67 113.185C98.926 124.517 95.1829 135.85 91.4418 147.183C91.2976 147.62 91.1778 148.064 91.042 148.521C91.4424 148.655 91.6846 148.406 91.9418 148.279C102.058 143.269 112.166 138.242 122.292 133.251C123.139 132.834 123.288 132.411 123.03 131.523C119.164 118.221 115.335 104.909 111.505 91.597C111.335 91.0088 110.915 90.3348 111.979 90.0689C112.608 89.9117 112.909 89.9863 113.107 90.688C114.365 95.1588 115.68 99.6139 116.967 104.077C119.249 111.991 121.524 119.907 123.803 127.822C124.018 128.566 124.243 129.307 124.48 130.122Z" fill="white" stroke="#73E29F" stroke-width="4"/>
<path d="M115.408 56.0165C111.482 61.854 107.074 67.224 102.406 72.3832C100.496 74.4943 98.5222 76.5473 96.5801 78.6294C96.397 78.8257 96.2336 79.0406 95.9068 79.4313C97.623 79.085 99.0357 78.5427 100.441 77.9839C103.766 76.6623 106.952 75.0097 110.329 73.8101C112.355 73.0907 114.419 72.554 116.568 72.4305C118.779 72.3034 120.866 72.8217 122.874 73.7365C127.284 75.7446 131.373 78.3387 135.59 80.6996C138.937 82.5737 142.364 84.2502 146.152 85.0414C151.294 86.1154 155.977 84.9343 160.272 82.0437C161.043 81.5246 161.424 81.6776 161.854 82.3923C162.108 82.8152 162.025 83.0454 161.652 83.2942C158.791 85.2056 155.712 86.556 152.278 87.0202C146.837 87.7555 141.972 85.9644 137.243 83.5859C133.467 81.6872 129.912 79.3942 126.206 77.3716C124.674 76.5357 123.109 75.7677 121.509 75.0739C118.21 73.6439 114.933 74.1555 111.672 75.2182C108.116 76.3769 104.808 78.1343 101.351 79.5347C98.8205 80.5601 96.2365 81.3786 93.5024 81.6297C92.8376 81.6908 92.1673 81.7623 91.4949 81.6102C91.4126 81.1321 91.797 80.9566 92.0398 80.7137C99.126 73.6233 105.873 66.2334 111.783 58.1137C114.78 53.9959 117.526 49.7221 119.445 44.9691C120.16 43.2 120.707 41.3767 120.827 39.47C120.988 36.9265 120.049 34.7289 117.414 33.6713C115.22 32.791 112.93 32.8046 110.637 32.8955C105.621 33.0943 100.806 34.3608 96.0253 35.7635C93.857 36.3997 91.7265 37.1644 89.5695 37.841C89.0232 38.0123 88.7056 38.319 88.4824 38.8445C81.7559 54.6874 75.0169 70.5249 68.2807 86.3636C64.469 95.326 60.6547 104.287 56.8562 113.255C56.5839 113.898 56.3153 114.197 55.5624 113.86C54.8251 113.529 54.9419 113.128 55.1886 112.549C60.1019 101.026 65.0008 89.4972 69.9073 77.9715C75.3777 65.1213 80.8528 52.273 86.3265 39.4242C86.5784 38.8328 86.8619 38.2561 86.5643 37.5834C86.4634 37.3552 86.4779 37.0329 86.767 36.9585C87.6369 36.7348 87.7801 35.9781 88.0548 35.3088C88.6151 33.9435 88.7888 33.9 90.1088 34.8248C90.0537 35.0948 89.9953 35.3808 89.9064 35.8164C91.0562 35.4496 92.0898 35.1207 93.1229 34.7902C97.6947 33.3278 102.324 32.0906 107.08 31.4035C110.389 30.9254 113.708 30.7186 116.988 31.666C121.031 32.834 122.969 35.8011 122.531 39.9925C122.17 43.4477 120.82 46.5471 119.27 49.5814C118.139 51.7928 116.831 53.9015 115.408 56.0165Z" fill="white" stroke="#73E29F" stroke-width="4"/>
<path d="M156.112 60.6639C156.329 58.0727 156.804 55.6521 158.128 53.5617C159.427 51.5121 161.423 51.4811 162.794 53.4618C163.89 55.0439 164.371 56.9276 164.66 58.8549C165.236 62.6947 165.137 66.5017 163.92 70.1994C163.585 71.2158 163.161 72.1846 162.47 72.9681C161.185 74.4257 159.466 74.3337 158.314 72.7263C157.267 71.2643 156.777 69.526 156.426 67.7239C155.976 65.4178 155.902 63.0891 156.112 60.6639ZM158.95 70.725C159.11 71 159.253 71.2914 159.434 71.5471C160.116 72.506 160.872 72.5062 161.551 71.5457C161.934 71.0036 162.217 70.3978 162.442 69.7465C163.159 67.6735 163.388 65.5137 163.407 63.3088C163.429 60.6441 163.208 58.0235 162.171 55.5857C161.82 54.7616 161.446 53.7794 160.463 53.7955C159.519 53.811 159.199 54.7806 158.842 55.5741C158.058 57.3128 157.739 59.1955 157.612 61.1219C157.397 64.3921 157.598 67.5956 158.95 70.725Z" fill="white" stroke="#73E29F" stroke-width="4"/>
<path d="M124.48 130.122C124.649 130.693 124.803 131.19 124.946 131.657C125.44 131.785 125.739 131.507 126.06 131.349C134.723 127.06 143.382 122.764 152.041 118.469C153.472 117.759 153.608 117.825 154 119.509C151.793 120.607 149.567 121.719 147.338 122.823C140.382 126.271 133.431 129.727 126.462 133.147C125.683 133.529 125.547 133.928 125.783 134.742C129.782 148.515 133.753 162.295 137.7 176.082C137.822 176.508 138.412 177.112 137.555 177.506C136.563 177.961 136.35 177.856 136.021 176.711C132.326 163.877 128.632 151.044 124.936 138.21C124.595 137.024 124.243 135.84 123.907 134.691C123.447 134.541 123.172 134.804 122.881 134.949C112.29 140.193 101.706 145.45 91.111 150.685C90.418 151.027 90.0193 151.468 89.7738 152.216C85.9091 163.999 82.0122 175.771 78.1218 187.546C78.0343 187.811 77.905 188.066 77.8497 188.337C77.7037 189.053 77.324 189.099 76.6854 188.895C76.0019 188.677 75.9212 188.371 76.1352 187.728C78.7623 179.846 81.3659 171.956 83.9703 164.066C85.2326 160.242 86.4838 156.415 87.7842 152.455C85.7055 153.282 83.8517 154.276 81.9694 155.207C77.7778 157.278 73.5892 159.356 69.4137 161.459C68.8227 161.757 68.4967 161.771 68.1744 161.112C67.8548 160.46 67.9568 160.16 68.6278 159.83C74.9816 156.71 81.3135 153.545 87.6656 150.421C88.3332 150.092 88.7264 149.668 88.9585 148.961C92.7039 137.564 96.4702 126.173 100.234 114.781C101.964 109.541 103.716 104.308 105.414 99.0579C105.669 98.267 105.992 98.0988 106.751 98.3782C107.333 98.5921 107.427 98.8479 107.236 99.4155C105.698 104 104.187 108.593 102.67 113.185C98.926 124.517 95.1829 135.85 91.4418 147.183C91.2976 147.62 91.1778 148.064 91.042 148.521C91.4424 148.655 91.6846 148.406 91.9418 148.279C102.058 143.269 112.166 138.242 122.292 133.251C123.139 132.834 123.288 132.411 123.03 131.523C119.164 118.221 115.335 104.909 111.505 91.597C111.335 91.0088 110.915 90.3348 111.979 90.0689C112.608 89.9117 112.909 89.9863 113.107 90.688C114.365 95.1588 115.68 99.6139 116.967 104.077C119.249 111.991 121.524 119.907 123.803 127.822C124.018 128.566 124.243 129.307 124.48 130.122Z" fill="#73E29F" stroke="#73E29F" stroke-width="4"/>
<path d="M115.408 56.0165C111.482 61.854 107.074 67.224 102.406 72.3832C100.496 74.4943 98.5222 76.5473 96.5801 78.6294C96.397 78.8257 96.2336 79.0406 95.9068 79.4313C97.623 79.085 99.0357 78.5427 100.441 77.9839C103.766 76.6623 106.952 75.0097 110.329 73.8101C112.355 73.0907 114.419 72.554 116.568 72.4305C118.779 72.3034 120.866 72.8217 122.874 73.7365C127.284 75.7446 131.373 78.3387 135.59 80.6996C138.937 82.5737 142.364 84.2502 146.152 85.0414C151.294 86.1154 155.977 84.9343 160.272 82.0437C161.043 81.5246 161.424 81.6776 161.854 82.3923C162.108 82.8152 162.025 83.0454 161.652 83.2942C158.791 85.2056 155.712 86.556 152.278 87.0202C146.837 87.7555 141.972 85.9644 137.243 83.5859C133.467 81.6872 129.912 79.3942 126.206 77.3716C124.674 76.5357 123.109 75.7677 121.509 75.0739C118.21 73.6439 114.933 74.1555 111.672 75.2182C108.116 76.3769 104.808 78.1343 101.351 79.5347C98.8205 80.5601 96.2365 81.3786 93.5024 81.6297C92.8376 81.6908 92.1673 81.7623 91.4949 81.6102C91.4126 81.1321 91.797 80.9566 92.0398 80.7137C99.126 73.6233 105.873 66.2334 111.783 58.1137C114.78 53.9959 117.526 49.7221 119.445 44.9691C120.16 43.2 120.707 41.3767 120.827 39.47C120.988 36.9265 120.049 34.7289 117.414 33.6713C115.22 32.791 112.93 32.8046 110.637 32.8955C105.621 33.0943 100.806 34.3608 96.0253 35.7635C93.857 36.3997 91.7265 37.1644 89.5695 37.841C89.0232 38.0123 88.7056 38.319 88.4824 38.8445C81.7559 54.6874 75.0169 70.5249 68.2807 86.3636C64.469 95.326 60.6547 104.287 56.8562 113.255C56.5839 113.898 56.3153 114.197 55.5624 113.86C54.8251 113.529 54.9419 113.128 55.1886 112.549C60.1019 101.026 65.0008 89.4972 69.9073 77.9715C75.3777 65.1213 80.8528 52.273 86.3265 39.4242C86.5784 38.8328 86.8619 38.2561 86.5643 37.5834C86.4634 37.3552 86.4779 37.0329 86.767 36.9585C87.6369 36.7348 87.7801 35.9781 88.0548 35.3088C88.6151 33.9435 88.7888 33.9 90.1088 34.8248C90.0537 35.0948 89.9953 35.3808 89.9064 35.8164C91.0562 35.4496 92.0898 35.1207 93.1229 34.7902C97.6947 33.3278 102.324 32.0906 107.08 31.4035C110.389 30.9254 113.708 30.7186 116.988 31.666C121.031 32.834 122.969 35.8011 122.531 39.9925C122.17 43.4477 120.82 46.5471 119.27 49.5814C118.139 51.7928 116.831 53.9015 115.408 56.0165Z" fill="#73E29F" stroke="#73E29F" stroke-width="4"/>
<path d="M156.112 60.6639C156.329 58.0727 156.804 55.6521 158.128 53.5617C159.427 51.5121 161.423 51.4811 162.794 53.4618C163.89 55.0439 164.371 56.9276 164.66 58.8549C165.236 62.6947 165.137 66.5017 163.92 70.1994C163.585 71.2158 163.161 72.1846 162.47 72.9681C161.185 74.4257 159.466 74.3337 158.314 72.7263C157.267 71.2643 156.777 69.526 156.426 67.7239C155.976 65.4178 155.902 63.0891 156.112 60.6639ZM158.95 70.725C159.11 71 159.253 71.2914 159.434 71.5471C160.116 72.506 160.872 72.5062 161.551 71.5457C161.934 71.0036 162.217 70.3978 162.442 69.7465C163.159 67.6735 163.388 65.5137 163.407 63.3088C163.429 60.6441 163.208 58.0235 162.171 55.5857C161.82 54.7616 161.446 53.7794 160.463 53.7955C159.519 53.811 159.199 54.7806 158.842 55.5741C158.058 57.3128 157.739 59.1955 157.612 61.1219C157.397 64.3921 157.598 67.5956 158.95 70.725Z" fill="#73E29F" stroke="#73E29F" stroke-width="4"/>
</svg>
